<?xml version="1.0" encoding="UTF-8" standalone="no"?>
<!-- Created with Inkscape (http://www.inkscape.org/) -->

<svg
   xmlns:dc="http://purl.org/dc/elements/1.1/"
   xmlns:cc="http://creativecommons.org/ns#"
   xmlns:rdf="http://www.w3.org/1999/02/22-rdf-syntax-ns#"
   xmlns:svg="http://www.w3.org/2000/svg"
   xmlns="http://www.w3.org/2000/svg"
   xmlns:sodipodi="http://sodipodi.sourceforge.net/DTD/sodipodi-0.dtd"
   xmlns:inkscape="http://www.inkscape.org/namespaces/inkscape"
   width="300"
   height="100"
   viewBox="0 0 300 100"
   id="svg3426"
   version="1.1"
   inkscape:version="0.91 r13725"
   sodipodi:docname="logo.svg">
  <defs
     id="defs3428" />
  <sodipodi:namedview
     id="base"
     pagecolor="#ffffff"
     bordercolor="#666666"
     borderopacity="1.0"
     inkscape:pageopacity="0.0"
     inkscape:pageshadow="2"
     inkscape:zoom="1.4"
     inkscape:cx="89.216257"
     inkscape:cy="112.53209"
     inkscape:document-units="px"
     inkscape:current-layer="text4318"
     showgrid="false"
     units="px"
     inkscape:window-width="1920"
     inkscape:window-height="1017"
     inkscape:window-x="1912"
     inkscape:window-y="-8"
     inkscape:window-maximized="1" />
  <metadata
     id="metadata3431">
    <rdf:RDF>
      <cc:Work
         rdf:about="">
        <dc:format>image/svg+xml</dc:format>
        <dc:type
           rdf:resource="http://purl.org/dc/dcmitype/StillImage" />
        <dc:title />
      </cc:Work>
    </rdf:RDF>
  </metadata>
  <g
     inkscape:label="Camada 1"
     inkscape:groupmode="layer"
     id="layer1"
     transform="translate(0,-952.36216)">
    <g
       id="g3397"
       transform="matrix(0.90081725,0,0,0.90081725,-1014.9524,112.08491)">
      <path
         style="opacity:1;fill:#ff6600;fill-opacity:1;fill-rule:evenodd;stroke:#ff00ff;stroke-width:0;stroke-linecap:butt;stroke-linejoin:miter;stroke-miterlimit:4;stroke-dasharray:none;stroke-opacity:1"
         d="m 1148.6249,987.39667 c -4.8294,11.49564 -10.1037,24.68813 3.7167,30.50763 21.9103,9.2258 56.5117,7.8275 67.3644,-1.239 7.2326,-6.0421 5.2392,-12.0275 2.1681,-19.51246 -6.9935,-17.04514 -14.8854,-33.97049 -30.5076,-49.86512 -7.324,-7.4517 -12.6803,-6.04654 -17.6541,0.1549 -9.8106,12.23198 -18.8587,25.12753 -25.0875,39.95405 z"
         id="path4160"
         inkscape:connector-curvature="0"
         sodipodi:nodetypes="sssssss" />
      <path
         style="fill:#f2fbfd;fill-opacity:1;fill-rule:evenodd;stroke:#ff0000;stroke-width:0;stroke-linecap:butt;stroke-linejoin:miter;stroke-miterlimit:4;stroke-dasharray:none;stroke-opacity:1"
         d="m 1156.1755,961.17437 c -7.2296,15.57579 -15.9555,29.75798 -17.1519,47.28333 -0.3542,5.1876 -10.336,-4.7764 -9.4465,-11.30486 2.2902,-16.80974 16.7553,-24.58437 26.5984,-35.97847 z"
         id="path4162"
         inkscape:connector-curvature="0"
         sodipodi:nodetypes="cssc" />
      <path
         style="fill:#f2fbfd;fill-opacity:1;fill-rule:evenodd;stroke:#ff0000;stroke-width:0;stroke-linecap:butt;stroke-linejoin:miter;stroke-miterlimit:4;stroke-dasharray:none;stroke-opacity:1"
         d="m 1222.2535,986.29747 c -8.1839,-15.09624 -17.4236,-33.51635 -30.7722,-44.93489 -3.9514,-3.37993 10.0007,-5.44338 14.7085,-0.83367 12.1217,11.86909 12.795,31.07058 16.0637,45.76856 z"
         id="path4162-8"
         inkscape:connector-curvature="0"
         sodipodi:nodetypes="cssc" />
      <path
         style="fill:#f7fafb;fill-opacity:1;fill-rule:evenodd;stroke:#ff0000;stroke-width:0;stroke-linecap:butt;stroke-linejoin:miter;stroke-miterlimit:4;stroke-dasharray:none;stroke-opacity:1"
         d="m 1223.7304,1020.3187 c -17.849,10.2336 -35.6981,6.2216 -53.5471,6.1322 12.9914,5.8729 25.195,16.5225 43.3633,10.5124 6.696,-2.2151 11.7674,-8.5078 10.1838,-16.6446 z"
         id="path4179"
         inkscape:connector-curvature="0"
         sodipodi:nodetypes="ccsc" />
      <circle
         style="opacity:1;fill:#000000;fill-opacity:1;stroke:#ff0000;stroke-width:0;stroke-miterlimit:4;stroke-dasharray:none;stroke-opacity:1"
         id="path4181"
         cx="1182.5396"
         cy="954.17902"
         r="7.4333158" />
      <path
         style="fill:#000000;fill-rule:evenodd;stroke:#000000;stroke-width:0;stroke-linecap:butt;stroke-linejoin:miter;stroke-miterlimit:4;stroke-dasharray:none;stroke-opacity:1"
         d="m 1172.4985,966.62493 c -6.197,5.16283 -5.399,12.43721 -0.6444,19.53279 6.7232,10.03352 12.4825,19.80418 12.5437,31.43678 -4.9556,-7.1838 -7.8953,-15.7917 -15.641,-20.90624 -11.5867,-7.65092 -9.4658,-17.83384 -4.4909,-24.46799 1.74,-2.32026 4.8873,-4.24451 8.2326,-5.59534 z"
         id="path4183"
         inkscape:connector-curvature="0"
         sodipodi:nodetypes="cscssc" />
      <path
         style="fill:#000000;fill-rule:evenodd;stroke:#000000;stroke-width:0;stroke-linecap:butt;stroke-linejoin:miter;stroke-miterlimit:4;stroke-dasharray:none;stroke-opacity:1"
         d="m 1190.9794,967.34213 c 8.0044,8.754 1.626,18.13335 1.1614,27.25556 2.653,-5.78708 8.5515,-10.27073 7.6657,-17.49927 -0.5373,-4.38379 -4.4046,-7.28779 -8.8271,-9.75629 z"
         id="path4185"
         inkscape:connector-curvature="0"
         sodipodi:nodetypes="ccsc" />
      <path
         style="fill:#ffffff;fill-rule:evenodd;stroke:#000000;stroke-width:0;stroke-linecap:butt;stroke-linejoin:miter;stroke-miterlimit:4;stroke-dasharray:none;stroke-opacity:1"
         d="m 1250.2911,965.53901 9.5239,0.0958 -10.1434,27.02707 c -1.1446,3.04964 3.2711,5.25638 4.9555,0.46457 l 9.6788,-27.5331 10.1435,0.009 -13.8601,35.57725 c -2.6154,6.7133 -26.1072,4.4953 -23.8486,-1.23877 z"
         id="path4187"
         inkscape:connector-curvature="0"
         sodipodi:nodetypes="ccssccssc" />
      <path
         style="fill:#ffffff;fill-rule:evenodd;stroke:#000000;stroke-width:0;stroke-linecap:butt;stroke-linejoin:miter;stroke-miterlimit:4;stroke-dasharray:none;stroke-opacity:1"
         d="m 1290.4177,965.56124 -12.0453,30.00974 8.1579,-0.10915 -3.066,9.47197 -19.4916,-0.1642 15.4321,-39.208 z"
         id="path4191"
         inkscape:connector-curvature="0" />
      <path
         style="fill:#ffffff;fill-rule:evenodd;stroke:#000000;stroke-width:0;stroke-linecap:butt;stroke-linejoin:miter;stroke-miterlimit:4;stroke-dasharray:none;stroke-opacity:1"
         d="m 1297.5354,965.56124 -3.1208,9.42317 25.4594,10e-6 3.4494,-9.42318 z"
         id="path4193"
         inkscape:connector-curvature="0"
         sodipodi:nodetypes="ccccc" />
      <path
         style="fill:#ffffff;fill-rule:evenodd;stroke:#000000;stroke-width:0;stroke-linecap:butt;stroke-linejoin:miter;stroke-miterlimit:4;stroke-dasharray:none;stroke-opacity:1"
         d="m 1300.2182,978.87173 10.4576,0 -8.815,26.06167 -11.9906,0 z"
         id="path4197"
         inkscape:connector-curvature="0" />
      <path
         style="fill:#ffffff;fill-rule:evenodd;stroke:#000000;stroke-width:0;stroke-linecap:butt;stroke-linejoin:miter;stroke-miterlimit:4;stroke-dasharray:none;stroke-opacity:1"
         d="m 1335.387,965.56124 -15.099,39.48176 -10.5304,0 15.5635,-39.48176 z"
         id="path4203-7"
         inkscape:connector-curvature="0" />
      <path
         style="fill:#ffffff;fill-rule:evenodd;stroke:#000000;stroke-width:0;stroke-linecap:butt;stroke-linejoin:miter;stroke-miterlimit:4;stroke-dasharray:none;stroke-opacity:1"
         d="m 1334.8919,978.54702 10.4576,0 -8.815,26.06168 -11.9906,0 z"
         id="path4197-4"
         inkscape:connector-curvature="0" />
      <path
         style="fill:#ffffff;fill-rule:evenodd;stroke:#000000;stroke-width:0;stroke-linecap:butt;stroke-linejoin:miter;stroke-miterlimit:4;stroke-dasharray:none;stroke-opacity:1"
         d="m 1349.3715,979.16645 10.4575,0 -8.8151,26.06175 -11.9905,0 z"
         id="path4197-5"
         inkscape:connector-curvature="0" />
      <path
         style="fill:#ffffff;fill-rule:evenodd;stroke:#000000;stroke-width:0;stroke-linecap:butt;stroke-linejoin:miter;stroke-miterlimit:4;stroke-dasharray:none;stroke-opacity:1"
         d="m 1353.3509,1005.0507 9.6788,0 12.9308,-32.52075 c 0.8779,-2.20775 2.8633,-6.96871 0,-6.96871 l -35.6953,0 -3.4844,9.40785 26.2489,0 c 1.605,0 0.9438,1.40981 0,3.95746 z"
         id="path4226"
         inkscape:connector-curvature="0"
         sodipodi:nodetypes="ccssccssc" />
      <path
         style="fill:#ffffff;fill-rule:evenodd;stroke:#000000;stroke-width:0;stroke-linecap:butt;stroke-linejoin:miter;stroke-miterlimit:4;stroke-dasharray:none;stroke-opacity:1"
         d="m 1391.3692,979.03411 -9.1368,0 -16.6476,26.00889 31.1271,0 8.5173,-35.45539 c 0.4969,-2.06827 -0.3424,-4.02637 -2.2455,-4.02637 l -17.0346,0 -3.7941,9.40785 9.6788,0 c 0.9472,0 2.5891,-0.14182 2.0712,2.0712 l -4.4715,19.10601 -7.8205,0 z"
         id="path4228"
         inkscape:connector-curvature="0"
         sodipodi:nodetypes="ccccssccssccc" />
      <path
         style="fill:#ffffff;fill-rule:evenodd;stroke:#000000;stroke-width:0;stroke-linecap:butt;stroke-linejoin:miter;stroke-miterlimit:4;stroke-dasharray:none;stroke-opacity:1"
         d="m 1410.5829,965.54248 -3.121,9.42318 25.4596,1e-5 3.4493,-9.42319 z"
         id="path4193-0"
         inkscape:connector-curvature="0"
         sodipodi:nodetypes="ccccc" />
      <path
         style="fill:#ffffff;fill-rule:evenodd;stroke:#000000;stroke-width:0;stroke-linecap:butt;stroke-linejoin:miter;stroke-miterlimit:4;stroke-dasharray:none;stroke-opacity:1"
         d="m 1413.2656,978.85297 10.4576,0 -8.8151,26.06173 -11.9905,0 z"
         id="path4197-7"
         inkscape:connector-curvature="0" />
      <path
         style="fill:#ffffff;fill-rule:evenodd;stroke:#000000;stroke-width:0;stroke-linecap:butt;stroke-linejoin:miter;stroke-miterlimit:4;stroke-dasharray:none;stroke-opacity:1"
         d="m 1438.1716,965.34065 -3.1208,9.42317 18.4133,10e-6 3.4494,-9.42318 z"
         id="path4193-0-3"
         inkscape:connector-curvature="0"
         sodipodi:nodetypes="ccccc" />
      <path
         style="fill:#ffffff;fill-rule:evenodd;stroke:#000000;stroke-width:0;stroke-linecap:butt;stroke-linejoin:miter;stroke-miterlimit:4;stroke-dasharray:none;stroke-opacity:1"
         d="m 1447.7385,988.5581 -7.5882,0 -1.8203,6.79372 6.6985,0 -2.5968,9.69118 -19.4709,0 10.608,-26.11645 17.3444,0 z"
         id="path4263"
         inkscape:connector-curvature="0" />
      <path
         style="fill:#ff6600;fill-opacity:1;fill-rule:evenodd;stroke:#000000;stroke-width:0;stroke-linecap:butt;stroke-linejoin:miter;stroke-miterlimit:4;stroke-dasharray:none;stroke-opacity:1"
         d="m 1237.9657,1011.0109 2.105,-3.6458 172.9905,0 -2.3506,4.0713 z"
         id="path4265"
         inkscape:connector-curvature="0" />
      <path
         style="fill:#ff6600;fill-opacity:1;fill-rule:evenodd;stroke:#000000;stroke-width:0;stroke-linecap:butt;stroke-linejoin:miter;stroke-miterlimit:4;stroke-dasharray:none;stroke-opacity:1"
         d="m 1412.74,1011.4001 2.3629,-4.0154 8.0127,0 -2.4109,4.0987 z"
         id="path4267"
         inkscape:connector-curvature="0"
         sodipodi:nodetypes="ccccc" />
      <path
         style="fill:#ff6600;fill-opacity:1;fill-rule:evenodd;stroke:#000000;stroke-width:0;stroke-linecap:butt;stroke-linejoin:miter;stroke-miterlimit:4;stroke-dasharray:none;stroke-opacity:1"
         d="m 1424.3763,1011.4001 2.3629,-4.0154 8.0127,0 -2.411,4.0987 z"
         id="path4267-0"
         inkscape:connector-curvature="0"
         sodipodi:nodetypes="ccccc" />
      <path
         style="fill:#ff6600;fill-opacity:1;fill-rule:evenodd;stroke:#000000;stroke-width:0;stroke-linecap:butt;stroke-linejoin:miter;stroke-miterlimit:4;stroke-dasharray:none;stroke-opacity:1"
         d="m 1435.8885,1011.4001 2.3629,-4.0154 8.0127,0 -2.4109,4.0987 z"
         id="path4267-0-7"
         inkscape:connector-curvature="0"
         sodipodi:nodetypes="ccccc" />
      <path
         style="fill:#ff6600;fill-opacity:1;fill-rule:evenodd;stroke:#000000;stroke-width:0;stroke-linecap:butt;stroke-linejoin:miter;stroke-miterlimit:4;stroke-dasharray:none;stroke-opacity:1"
         d="m 1446.2669,1011.4001 2.363,-4.0154 8.0127,0 -2.411,4.0987 z"
         id="path4267-0-7-1"
         inkscape:connector-curvature="0"
         sodipodi:nodetypes="ccccc" />
      <g
         style="font-style:normal;font-weight:normal;font-size:15.68359566px;line-height:125%;font-family:sans-serif;letter-spacing:0px;word-spacing:0px;fill:#000000;fill-opacity:1;stroke:none;stroke-width:1px;stroke-linecap:butt;stroke-linejoin:miter;stroke-opacity:1"
         id="text4318">
        <path
           d="m 1263.9894,1024.4746 q 0,0.6431 -0.3136,1.239 -0.3137,0.596 -0.8783,1.0508 -0.5489,0.4549 -1.3174,0.7215 -0.7685,0.2823 -1.6782,0.2823 -0.298,0 -0.7214,-0.063 -0.4078,-0.047 -0.8626,-0.1882 -0.4549,-0.1255 -0.9097,-0.3608 -0.4548,-0.2509 -0.8469,-0.6273 -0.3764,-0.3921 -0.643,-0.9253 -0.251,-0.549 -0.3294,-1.2861 l 1.2861,-0.078 q 0.063,0.7528 0.4234,1.2076 0.3608,0.4392 0.8313,0.6744 0.4705,0.2353 0.9567,0.3137 0.4862,0.063 0.8312,0.063 0.6117,0 1.1292,-0.1568 0.5333,-0.1725 0.9253,-0.4391 0.3921,-0.2824 0.6117,-0.6431 0.2353,-0.3764 0.2353,-0.7842 0,-0.3293 -0.1726,-0.6587 -0.1568,-0.3293 -0.5332,-0.6273 -0.3607,-0.3137 -0.9724,-0.5803 -0.6116,-0.2823 -1.5056,-0.5176 -0.5489,-0.1411 -1.1606,-0.3764 -0.6117,-0.2509 -1.1292,-0.6116 -0.5019,-0.3608 -0.8469,-0.8626 -0.3294,-0.5019 -0.3294,-1.192 0,-0.8783 0.4078,-1.4899 0.4078,-0.6117 0.9881,-1.0038 0.5959,-0.3921 1.239,-0.5646 0.6587,-0.1725 1.1449,-0.1725 0.8469,0 1.537,0.2823 0.7057,0.2666 1.2233,0.7371 0.5175,0.4705 0.8155,1.0979 0.298,0.6116 0.3294,1.3174 l -1.2704,0.078 q -0.031,-0.4705 -0.2509,-0.8783 -0.2196,-0.4077 -0.5803,-0.7057 -0.3607,-0.298 -0.8313,-0.4705 -0.4548,-0.1882 -0.9567,-0.1882 -0.345,0 -0.7841,0.1098 -0.4392,0.1097 -0.8313,0.345 -0.3764,0.2352 -0.643,0.596 -0.2666,0.3607 -0.2666,0.8783 0,0.4077 0.2352,0.7214 0.251,0.298 0.6274,0.5176 0.3764,0.2195 0.8155,0.3764 0.4549,0.1568 0.8626,0.2509 1.1449,0.298 1.9291,0.7058 0.7842,0.3921 1.2704,0.8626 0.4862,0.4548 0.6901,0.9723 0.2195,0.5176 0.2195,1.0508 z"
           style="font-style:normal;font-variant:normal;font-weight:bold;font-stretch:normal;font-family:Signoria;-inkscape-font-specification:Signoria;letter-spacing:5.35876989px;fill:#ffffff"
           id="path3362" />
        <path
           d="m 1271.9622,1027.4388 0,-11.4333 3.5759,0 q 0.8939,0 1.584,0.2509 0.6901,0.2353 1.1606,0.6744 0.4862,0.4235 0.7371,1.0195 0.251,0.5803 0.251,1.2703 0,0.8783 -0.3137,1.5057 -0.298,0.6116 -0.8156,1.0037 -0.5175,0.3921 -1.1919,0.5803 -0.6587,0.1725 -1.3645,0.1725 l -2.3682,0 0,4.956 -1.2547,0 z m 3.6072,-6.2263 q 0.4392,0 0.8783,-0.078 0.4392,-0.094 0.7842,-0.3136 0.345,-0.2353 0.5489,-0.6117 0.2196,-0.3921 0.2196,-0.9881 0,-0.8469 -0.643,-1.3958 -0.6431,-0.5489 -1.8193,-0.5489 l -2.3212,0 0,3.9366 2.3525,0 z"
           style="font-style:normal;font-variant:normal;font-weight:bold;font-stretch:normal;font-family:Signoria;-inkscape-font-specification:Signoria;letter-spacing:5.35876989px;fill:#ffffff"
           id="path3364" />
        <path
           d="m 1286.2891,1021.7614 q 0,-1.3331 0.5018,-2.4467 0.5176,-1.1135 1.3645,-1.9134 0.8469,-0.7998 1.9291,-1.239 1.0978,-0.4548 2.2741,-0.4548 1.3331,0 2.4623,0.5019 1.1293,0.4862 1.9448,1.3174 0.8312,0.8156 1.2861,1.8977 0.4548,1.0665 0.4548,2.2428 0,1.3488 -0.5176,2.4623 -0.5019,1.0979 -1.3488,1.8977 -0.8312,0.7999 -1.9291,1.239 -1.0821,0.4392 -2.2584,0.4392 -1.3488,0 -2.478,-0.4862 -1.1292,-0.4862 -1.9448,-1.3018 -0.8155,-0.8312 -1.286,-1.8977 -0.4548,-1.0821 -0.4548,-2.2584 z m 10.9471,-0.047 q 0,-0.9724 -0.3764,-1.835 -0.3764,-0.8625 -1.0351,-1.5056 -0.643,-0.643 -1.537,-1.0194 -0.894,-0.3764 -1.9291,-0.3764 -0.894,0 -1.7566,0.345 -0.8626,0.3451 -1.5369,0.9724 -0.6744,0.6117 -1.0979,1.4899 -0.4078,0.8783 -0.4078,1.9605 0,0.894 0.3608,1.7409 0.3607,0.8469 1.0037,1.5056 0.643,0.6587 1.537,1.0665 0.9096,0.3921 1.9761,0.3921 0.9097,0 1.7723,-0.3451 0.8626,-0.345 1.537,-0.9567 0.6744,-0.6273 1.0821,-1.4899 0.4078,-0.8783 0.4078,-1.9448 z"
           style="font-style:normal;font-variant:normal;font-weight:bold;font-stretch:normal;font-family:Signoria;-inkscape-font-specification:Signoria;letter-spacing:5.35876989px;fill:#ffffff"
           id="path3366" />
        <path
           d="m 1313.8536,1019.4559 q 0,0.7528 -0.3137,1.3958 -0.298,0.6274 -0.7998,1.0822 -0.4862,0.4548 -1.1136,0.7058 -0.6116,0.2509 -1.2547,0.2509 l -0.3136,0 4.3286,4.6267 -1.7095,0 -4.9874,-5.2854 0,5.2069 -1.2703,0 0,-11.4333 3.5915,0 q 0.8783,0 1.5841,0.2823 0.7214,0.2823 1.2233,0.7528 0.5019,0.4705 0.7685,1.0979 0.2666,0.6273 0.2666,1.3174 z m -6.1637,2.2741 2.2428,0 q 0.4391,0 0.9096,-0.1255 0.4706,-0.1411 0.847,-0.4077 0.392,-0.2823 0.643,-0.7058 0.2509,-0.4391 0.2509,-1.0351 0,-0.4235 -0.1882,-0.8156 -0.1725,-0.4077 -0.5019,-0.7057 -0.3293,-0.298 -0.8155,-0.4705 -0.4705,-0.1882 -1.0665,-0.1882 l -2.3212,0 0,4.4541 z"
           style="font-style:normal;font-variant:normal;font-weight:bold;font-stretch:normal;font-family:Signoria;-inkscape-font-specification:Signoria;letter-spacing:5.35876989px;fill:#ffffff"
           id="path3368" />
        <path
           d="m 1324.657,1027.58 0,-10.3041 -3.8738,0 0,-1.2704 8.9867,0 0,1.2704 -3.8425,0 0,10.3041 -1.2704,0 z"
           style="font-style:normal;font-variant:normal;font-weight:bold;font-stretch:normal;font-family:Signoria;-inkscape-font-specification:Signoria;letter-spacing:5.35876989px;fill:#ffffff"
           id="path3370" />
        <path
           d="m 1349.3055,1021.8084 q 0,0.9254 0.3451,1.7723 0.345,0.8469 0.9567,1.4899 0.6273,0.643 1.4742,1.0195 0.8626,0.3764 1.8664,0.3764 0.8939,0 1.7722,-0.3921 0.8783,-0.3921 1.6311,-1.1136 l 0.8783,0.8783 q -0.894,0.894 -1.9918,1.3802 -1.0979,0.4862 -2.2742,0.4862 -1.3174,0 -2.3995,-0.4862 -1.0822,-0.4862 -1.8664,-1.3018 -0.7842,-0.8155 -1.2233,-1.882 -0.4235,-1.0665 -0.4235,-2.2271 0,-1.3174 0.4705,-2.4152 0.4862,-1.1136 1.2861,-1.8978 0.8155,-0.7841 1.8663,-1.2233 1.0508,-0.4391 2.1957,-0.4391 1.2861,0 2.3996,0.5175 1.1293,0.5176 1.9762,1.4116 l -0.8626,0.8782 q -0.7058,-0.7057 -1.5998,-1.1292 -0.8782,-0.4234 -1.9134,-0.4234 -0.9253,0 -1.7565,0.3607 -0.8156,0.345 -1.4429,0.9881 -0.6274,0.6273 -1.0038,1.4899 -0.3607,0.8626 -0.3607,1.882 z"
           style="font-style:normal;font-variant:normal;font-weight:bold;font-stretch:normal;font-family:Signoria;-inkscape-font-specification:Signoria;letter-spacing:5.35876989px;fill:#ffffff"
           id="path3372" />
        <path
           d="m 1370.7753,1022.6867 -2.9015,-0.016 q 0,0.9567 0,1.7566 0.016,0.7999 0.016,1.7409 l 4.7207,0 0,1.2703 -5.9911,0 0,-11.4333 5.9911,0 0,1.2704 -4.7207,0 q 0,1.0821 -0.016,2.0702 0,0.9881 0,2.0702 0.6901,0 1.4429,0.016 0.7685,0 1.4586,0 l 0,1.2547 z"
           style="font-style:normal;font-variant:normal;font-weight:bold;font-stretch:normal;font-family:Signoria;-inkscape-font-specification:Signoria;letter-spacing:5.35876989px;fill:#ffffff"
           id="path3374" />
        <path
           d="m 1389.1654,1024.459 0,-8.4535 1.2704,0 0,11.8882 -7.9359,-9.0808 0,8.6259 -1.2704,0 0,-11.8881 7.9359,8.9083 z"
           style="font-style:normal;font-variant:normal;font-weight:bold;font-stretch:normal;font-family:Signoria;-inkscape-font-specification:Signoria;letter-spacing:5.35876989px;fill:#ffffff"
           id="path3376" />
        <path
           d="m 1401.9631,1027.58 0,-10.3041 -3.8739,0 0,-1.2704 8.9867,0 0,1.2704 -3.8425,0 0,10.3041 -1.2703,0 z"
           style="font-style:normal;font-variant:normal;font-weight:bold;font-stretch:normal;font-family:Signoria;-inkscape-font-specification:Signoria;letter-spacing:5.35876989px;fill:#ffffff"
           id="path3378" />
        <path
           d="m 1418.8314,1022.6867 -2.9015,-0.016 q 0,0.9567 0,1.7566 0.016,0.7999 0.016,1.7409 l 4.7208,0 0,1.2703 -5.9912,0 0,-11.4333 5.9912,0 0,1.2704 -4.7208,0 q 0,1.0821 -0.016,2.0702 0,0.9881 0,2.0702 0.6901,0 1.4429,0.016 0.7685,0 1.4586,0 l 0,1.2547 z"
           style="font-style:normal;font-variant:normal;font-weight:bold;font-stretch:normal;font-family:Signoria;-inkscape-font-specification:Signoria;letter-spacing:5.35876989px;fill:#ffffff"
           id="path3380" />
        <path
           d="m 1436.704,1019.4559 q 0,0.7528 -0.3137,1.3958 -0.298,0.6274 -0.7999,1.0822 -0.4862,0.4548 -1.1135,0.7058 -0.6117,0.2509 -1.2547,0.2509 l -0.3137,0 4.3287,4.6267 -1.7095,0 -4.9874,-5.2854 0,5.2069 -1.2704,0 0,-11.4333 3.5916,0 q 0.8783,0 1.584,0.2823 0.7215,0.2823 1.2233,0.7528 0.5019,0.4705 0.7685,1.0979 0.2667,0.6273 0.2667,1.3174 z m -6.1637,2.2741 2.2428,0 q 0.4391,0 0.9096,-0.1255 0.4705,-0.1411 0.8469,-0.4077 0.3921,-0.2823 0.6431,-0.7058 0.2509,-0.4391 0.2509,-1.0351 0,-0.4235 -0.1882,-0.8156 -0.1725,-0.4077 -0.5019,-0.7057 -0.3293,-0.298 -0.8155,-0.4705 -0.4705,-0.1882 -1.0665,-0.1882 l -2.3212,0 0,4.4541 z"
           style="font-style:normal;font-variant:normal;font-weight:bold;font-stretch:normal;font-family:Signoria;-inkscape-font-specification:Signoria;letter-spacing:5.35876989px;fill:#ffffff"
           id="path3382" />
      </g>
    </g>
  </g>
</svg>
